<?xml version="1.0" encoding="UTF-8"?>
<svg version="1.1" viewBox="0 0 100 100" xmlns="http://www.w3.org/2000/svg">
 <path d="m90.398 84l-14.598-14.5c11.398-14.602 10.199-35.398-2.9023-48.5-6.8984-6.8984-16.102-10.699-25.898-10.699-9.8008 0-19 3.8008-25.898 10.699-6.8984 6.8984-10.699 16.102-10.699 25.898 0 9.8008 3.8008 19 10.699 25.898 6.8984 6.8984 16.102 10.699 25.898 10.699 8.1016 0 16.102-2.6992 22.5-7.8008l14.5 14.703c0.89844 0.89844 2 1.3008 3.1992 1.3008s2.3008-0.5 3.1992-1.3008c1.8008-1.6992 1.8008-4.5977 0-6.3984zm-15.797-37.102c0 7.3984-2.8984 14.301-8.1016 19.5-5.1992 5.1992-12.199 8.1016-19.5 8.1016s-14.301-2.8984-19.5-8.1016c-5.1992-5.1992-8.1016-12.199-8.1016-19.5 0-7.3984 2.8984-14.301 8.1016-19.5 5.1992-5.1992 12.199-8.1016 19.5-8.1016 7.3984 0 14.301 2.8984 19.5 8.1016 5.1992 5.2031 8.1016 12.102 8.1016 19.5z"/>
</svg>
