<svg viewBox="0 0 100 100" xmlns="http://www.w3.org/2000/svg"><path d="M90.398 84L75.8 69.5C87.198 54.898 85.999 34.102 72.898 21 65.999 14.102 56.796 10.301 47 10.301c-9.801 0-19 3.8-25.898 10.699-6.899 6.898-10.7 16.102-10.7 25.898 0 9.8 3.802 19 10.7 25.898S37.204 83.495 47 83.495c8.101 0 16.102-2.7 22.5-7.8L84 90.396c.898.899 2 1.301 3.199 1.301s2.3-.5 3.2-1.3c1.8-1.7 1.8-4.598 0-6.4zM74.601 46.898c0 7.398-2.898 14.301-8.102 19.5C61.3 71.598 54.3 74.5 47 74.5S32.7 71.6 27.5 66.398c-5.199-5.2-8.101-12.199-8.101-19.5 0-7.398 2.898-14.301 8.101-19.5 5.2-5.2 12.2-8.102 19.5-8.102 7.399 0 14.301 2.899 19.5 8.102 5.2 5.203 8.102 12.102 8.102 19.5z"/></svg>
