<?xml version="1.0" standalone="no"?>
<!DOCTYPE svg PUBLIC "-//W3C//DTD SVG 20010904//EN"
 "http://www.w3.org/TR/2001/REC-SVG-20010904/DTD/svg10.dtd">
<svg version="1.0" xmlns="http://www.w3.org/2000/svg"
 width="512.000000pt" height="512.000000pt" viewBox="0 0 512.000000 512.000000"
 preserveAspectRatio="xMidYMid meet">
<metadata>
Created by potrace 1.11, written by Peter Selinger 2001-2013
</metadata>
<g transform="translate(0.000000,512.000000) scale(0.100000,-0.100000)"
fill="#000000" stroke="none">
<path d="M717 5094 c-1 -1 -27 -4 -57 -7 -92 -10 -119 -17 -210 -59 -108 -51
-209 -166 -248 -283 -41 -127 -40 -81 -38 -2229 l2 -2051 22 -72 c61 -200 186
-319 392 -372 72 -19 115 -19 1035 -17 528 1 969 5 980 8 11 3 56 9 99 13 43
4 88 9 100 11 12 2 40 6 63 9 74 9 284 55 393 87 622 179 1100 545 1385 1059
261 473 365 1076 299 1737 -3 29 -7 61 -8 70 -2 9 -7 37 -11 62 -3 25 -9 59
-11 75 -3 17 -12 59 -20 95 -9 36 -18 76 -20 90 -25 135 -146 439 -233 585
-20 33 -42 72 -50 87 -61 119 -323 410 -476 530 -83 66 -201 148 -211 148 -4
0 -15 6 -23 14 -29 26 -305 162 -406 200 -55 21 -113 43 -130 49 -16 6 -34 13
-40 14 -5 1 -59 16 -120 33 -60 16 -148 37 -195 46 -47 9 -94 18 -105 20 -11
2 -40 7 -65 10 -25 3 -52 8 -61 9 -9 2 -52 7 -95 11 -43 3 -92 9 -109 11 -29
4 -1823 11 -1828 7z m1668 -1077 c17 -3 57 -8 90 -12 85 -9 234 -42 324 -72
366 -121 622 -375 739 -733 67 -202 87 -357 87 -655 0 -214 -4 -262 -30 -417
-103 -593 -475 -946 -1089 -1033 -23 -3 -57 -9 -76 -12 -19 -3 -239 -8 -487
-10 l-453 -5 0 1479 0 1480 433 -2 c237 -2 446 -5 462 -8z"/>
</g>
</svg>
